<mxfile host="app.diagrams.net" modified="2020-08-14T02:28:18.556Z" agent="5.0 (Macintosh; Intel Mac OS X 10_15_6) AppleWebKit/537.36 (KHTML, like Gecko) Chrome/84.0.4147.105 Safari/537.36" etag="qLTblanbw4R1jsZbC_ll" version="13.6.2" type="github">
  <diagram id="C5RBs43oDa-KdzZeNtuy" name="Page-1">
    <mxGraphModel dx="1113" dy="702" grid="1" gridSize="10" guides="1" tooltips="1" connect="1" arrows="1" fold="1" page="1" pageScale="1" pageWidth="827" pageHeight="1169" math="0" shadow="0">
      <root>
        <mxCell id="WIyWlLk6GJQsqaUBKTNV-0" />
        <mxCell id="WIyWlLk6GJQsqaUBKTNV-1" parent="WIyWlLk6GJQsqaUBKTNV-0" />
        <mxCell id="BuQ4V9epDreo4t1ZrMX0-0" value="" style="rounded=1;whiteSpace=wrap;html=1;fillColor=#f5f5f5;strokeColor=#666666;fontColor=#333333;arcSize=3;" vertex="1" parent="WIyWlLk6GJQsqaUBKTNV-1">
          <mxGeometry x="64" y="60" width="700" height="600" as="geometry" />
        </mxCell>
        <mxCell id="BuQ4V9epDreo4t1ZrMX0-1" value="&lt;font style=&quot;font-size: 22px&quot;&gt;COVID&amp;nbsp;19 TRACKER&lt;/font&gt;" style="text;html=1;strokeColor=none;fillColor=none;align=center;verticalAlign=middle;whiteSpace=wrap;rounded=0;" vertex="1" parent="WIyWlLk6GJQsqaUBKTNV-1">
          <mxGeometry x="110" y="100" width="230" height="20" as="geometry" />
        </mxCell>
        <mxCell id="BuQ4V9epDreo4t1ZrMX0-2" value="Worldwide" style="rounded=1;whiteSpace=wrap;html=1;" vertex="1" parent="WIyWlLk6GJQsqaUBKTNV-1">
          <mxGeometry x="350" y="90" width="140" height="40" as="geometry" />
        </mxCell>
        <mxCell id="BuQ4V9epDreo4t1ZrMX0-3" value="" style="rounded=1;whiteSpace=wrap;html=1;" vertex="1" parent="WIyWlLk6GJQsqaUBKTNV-1">
          <mxGeometry x="240" y="140" width="120" height="60" as="geometry" />
        </mxCell>
        <mxCell id="BuQ4V9epDreo4t1ZrMX0-5" value="&lt;font style=&quot;font-size: 10px&quot;&gt;Recovered&amp;nbsp;&lt;/font&gt;" style="text;html=1;strokeColor=none;fillColor=none;align=left;verticalAlign=middle;whiteSpace=wrap;rounded=0;" vertex="1" parent="WIyWlLk6GJQsqaUBKTNV-1">
          <mxGeometry x="245" y="140" width="110" height="20" as="geometry" />
        </mxCell>
        <mxCell id="BuQ4V9epDreo4t1ZrMX0-6" value="&lt;font style=&quot;font-size: 10px&quot;&gt;+2,000&lt;/font&gt;" style="text;html=1;strokeColor=none;fillColor=none;align=left;verticalAlign=middle;whiteSpace=wrap;rounded=0;" vertex="1" parent="WIyWlLk6GJQsqaUBKTNV-1">
          <mxGeometry x="120" y="160" width="110" height="20" as="geometry" />
        </mxCell>
        <mxCell id="BuQ4V9epDreo4t1ZrMX0-7" value="&lt;font style=&quot;font-size: 10px&quot;&gt;1.2 M Total&lt;/font&gt;" style="text;html=1;strokeColor=none;fillColor=none;align=left;verticalAlign=middle;whiteSpace=wrap;rounded=0;" vertex="1" parent="WIyWlLk6GJQsqaUBKTNV-1">
          <mxGeometry x="250" y="180" width="110" height="20" as="geometry" />
        </mxCell>
        <mxCell id="BuQ4V9epDreo4t1ZrMX0-8" value="" style="rounded=1;whiteSpace=wrap;html=1;" vertex="1" parent="WIyWlLk6GJQsqaUBKTNV-1">
          <mxGeometry x="370" y="140" width="120" height="60" as="geometry" />
        </mxCell>
        <mxCell id="BuQ4V9epDreo4t1ZrMX0-9" value="&lt;font style=&quot;font-size: 10px&quot;&gt;Deaths&lt;/font&gt;" style="text;html=1;strokeColor=none;fillColor=none;align=left;verticalAlign=middle;whiteSpace=wrap;rounded=0;" vertex="1" parent="WIyWlLk6GJQsqaUBKTNV-1">
          <mxGeometry x="375" y="140" width="110" height="20" as="geometry" />
        </mxCell>
        <mxCell id="BuQ4V9epDreo4t1ZrMX0-10" value="&lt;font style=&quot;font-size: 10px&quot;&gt;+2,000&lt;/font&gt;" style="text;html=1;strokeColor=none;fillColor=none;align=left;verticalAlign=middle;whiteSpace=wrap;rounded=0;" vertex="1" parent="WIyWlLk6GJQsqaUBKTNV-1">
          <mxGeometry x="375" y="160" width="110" height="20" as="geometry" />
        </mxCell>
        <mxCell id="BuQ4V9epDreo4t1ZrMX0-11" value="" style="rounded=1;whiteSpace=wrap;html=1;" vertex="1" parent="WIyWlLk6GJQsqaUBKTNV-1">
          <mxGeometry x="110" y="140" width="120" height="60" as="geometry" />
        </mxCell>
        <mxCell id="BuQ4V9epDreo4t1ZrMX0-12" value="&lt;font style=&quot;font-size: 10px&quot;&gt;Coronavirus Cases&lt;/font&gt;" style="text;html=1;strokeColor=none;fillColor=none;align=left;verticalAlign=middle;whiteSpace=wrap;rounded=0;" vertex="1" parent="WIyWlLk6GJQsqaUBKTNV-1">
          <mxGeometry x="115" y="140" width="110" height="20" as="geometry" />
        </mxCell>
        <mxCell id="BuQ4V9epDreo4t1ZrMX0-13" value="&lt;font style=&quot;font-size: 10px&quot;&gt;+2,000&lt;/font&gt;" style="text;html=1;strokeColor=none;fillColor=none;align=left;verticalAlign=middle;whiteSpace=wrap;rounded=0;" vertex="1" parent="WIyWlLk6GJQsqaUBKTNV-1">
          <mxGeometry x="115" y="160" width="110" height="20" as="geometry" />
        </mxCell>
        <mxCell id="BuQ4V9epDreo4t1ZrMX0-14" value="&lt;font style=&quot;font-size: 10px&quot;&gt;1.2 M Total&lt;/font&gt;" style="text;html=1;strokeColor=none;fillColor=none;align=left;verticalAlign=middle;whiteSpace=wrap;rounded=0;" vertex="1" parent="WIyWlLk6GJQsqaUBKTNV-1">
          <mxGeometry x="115" y="180" width="110" height="20" as="geometry" />
        </mxCell>
        <mxCell id="BuQ4V9epDreo4t1ZrMX0-15" value="&lt;font style=&quot;font-size: 10px&quot;&gt;+2,000&lt;/font&gt;" style="text;html=1;strokeColor=none;fillColor=none;align=left;verticalAlign=middle;whiteSpace=wrap;rounded=0;" vertex="1" parent="WIyWlLk6GJQsqaUBKTNV-1">
          <mxGeometry x="245" y="160" width="110" height="20" as="geometry" />
        </mxCell>
        <mxCell id="BuQ4V9epDreo4t1ZrMX0-17" value="&lt;font style=&quot;font-size: 10px&quot;&gt;1.2 M Total&lt;/font&gt;" style="text;html=1;strokeColor=none;fillColor=none;align=left;verticalAlign=middle;whiteSpace=wrap;rounded=0;" vertex="1" parent="WIyWlLk6GJQsqaUBKTNV-1">
          <mxGeometry x="375" y="180" width="110" height="20" as="geometry" />
        </mxCell>
        <mxCell id="BuQ4V9epDreo4t1ZrMX0-18" value="" style="rounded=1;whiteSpace=wrap;html=1;arcSize=3;" vertex="1" parent="WIyWlLk6GJQsqaUBKTNV-1">
          <mxGeometry x="110" y="220" width="380" height="340" as="geometry" />
        </mxCell>
        <mxCell id="BuQ4V9epDreo4t1ZrMX0-19" value="" style="shape=image;html=1;verticalAlign=top;verticalLabelPosition=bottom;labelBackgroundColor=#ffffff;imageAspect=0;aspect=fixed;image=https://cdn4.iconfinder.com/data/icons/small-n-flat/24/map-128.png" vertex="1" parent="WIyWlLk6GJQsqaUBKTNV-1">
          <mxGeometry x="232" y="310" width="128" height="128" as="geometry" />
        </mxCell>
        <mxCell id="BuQ4V9epDreo4t1ZrMX0-20" value="" style="rounded=1;whiteSpace=wrap;html=1;arcSize=9;" vertex="1" parent="WIyWlLk6GJQsqaUBKTNV-1">
          <mxGeometry x="520" y="90" width="210" height="470" as="geometry" />
        </mxCell>
        <mxCell id="BuQ4V9epDreo4t1ZrMX0-21" value="Case By Country" style="text;html=1;strokeColor=none;fillColor=none;align=center;verticalAlign=middle;whiteSpace=wrap;rounded=0;" vertex="1" parent="WIyWlLk6GJQsqaUBKTNV-1">
          <mxGeometry x="530" y="100" width="110" height="20" as="geometry" />
        </mxCell>
        <mxCell id="BuQ4V9epDreo4t1ZrMX0-22" value="Worldwide New Cases" style="text;html=1;strokeColor=none;fillColor=none;align=center;verticalAlign=middle;whiteSpace=wrap;rounded=0;" vertex="1" parent="WIyWlLk6GJQsqaUBKTNV-1">
          <mxGeometry x="530" y="390" width="160" height="20" as="geometry" />
        </mxCell>
        <mxCell id="BuQ4V9epDreo4t1ZrMX0-23" value="" style="fillColor=#10739E;strokeColor=none;" vertex="1" parent="WIyWlLk6GJQsqaUBKTNV-1">
          <mxGeometry x="530" y="448" width="30" height="100" as="geometry" />
        </mxCell>
        <mxCell id="BuQ4V9epDreo4t1ZrMX0-24" value="" style="shape=mxgraph.arrows2.arrow;dy=0.4;dx=16;notch=0;direction=north;fillColor=#1699D3;strokeColor=none;" vertex="1" parent="BuQ4V9epDreo4t1ZrMX0-23">
          <mxGeometry x="3" y="30" width="24" height="70" as="geometry" />
        </mxCell>
        <mxCell id="BuQ4V9epDreo4t1ZrMX0-25" value="Label" style="text;html=1;align=center;verticalAlign=middle;whiteSpace=wrap;fontColor=#FFFFFF;fontSize=10;" vertex="1" parent="BuQ4V9epDreo4t1ZrMX0-23">
          <mxGeometry width="30" height="20" as="geometry" />
        </mxCell>
        <mxCell id="BuQ4V9epDreo4t1ZrMX0-26" value="" style="fillColor=#F2931E;strokeColor=none;" vertex="1" parent="WIyWlLk6GJQsqaUBKTNV-1">
          <mxGeometry x="565" y="428" width="30" height="120" as="geometry" />
        </mxCell>
        <mxCell id="BuQ4V9epDreo4t1ZrMX0-27" value="" style="shape=mxgraph.arrows2.arrow;dy=0.4;dx=16;notch=0;direction=south;fillColor=#F5AB50;strokeColor=none;" vertex="1" parent="BuQ4V9epDreo4t1ZrMX0-26">
          <mxGeometry x="3" width="24" height="80" as="geometry" />
        </mxCell>
        <mxCell id="BuQ4V9epDreo4t1ZrMX0-28" value="Label" style="text;html=1;align=center;verticalAlign=middle;whiteSpace=wrap;fontColor=#FFFFFF;fontSize=10;" vertex="1" parent="BuQ4V9epDreo4t1ZrMX0-26">
          <mxGeometry width="30" height="20" as="geometry" />
        </mxCell>
        <mxCell id="BuQ4V9epDreo4t1ZrMX0-29" value="" style="fillColor=#AE4132;strokeColor=none;" vertex="1" parent="WIyWlLk6GJQsqaUBKTNV-1">
          <mxGeometry x="600" y="418" width="30" height="130" as="geometry" />
        </mxCell>
        <mxCell id="BuQ4V9epDreo4t1ZrMX0-30" value="" style="shape=mxgraph.arrows2.arrow;dy=0.4;dx=16;notch=0;direction=north;fillColor=#E85642;strokeColor=none;" vertex="1" parent="BuQ4V9epDreo4t1ZrMX0-29">
          <mxGeometry x="3" y="80" width="24" height="50" as="geometry" />
        </mxCell>
        <mxCell id="BuQ4V9epDreo4t1ZrMX0-31" value="Label" style="text;html=1;align=center;verticalAlign=middle;whiteSpace=wrap;fontColor=#FFFFFF;fontSize=10;" vertex="1" parent="BuQ4V9epDreo4t1ZrMX0-29">
          <mxGeometry width="30" height="20" as="geometry" />
        </mxCell>
        <mxCell id="BuQ4V9epDreo4t1ZrMX0-32" value="" style="fillColor=#12AAB5;strokeColor=none;" vertex="1" parent="WIyWlLk6GJQsqaUBKTNV-1">
          <mxGeometry x="635" y="468" width="30" height="80" as="geometry" />
        </mxCell>
        <mxCell id="BuQ4V9epDreo4t1ZrMX0-33" value="" style="shape=mxgraph.arrows2.arrow;dy=0.4;dx=16;notch=0;direction=south;fillColor=#64BBE2;strokeColor=none;" vertex="1" parent="BuQ4V9epDreo4t1ZrMX0-32">
          <mxGeometry x="3" width="24" height="30" as="geometry" />
        </mxCell>
        <mxCell id="BuQ4V9epDreo4t1ZrMX0-34" value="Label" style="text;html=1;align=center;verticalAlign=middle;whiteSpace=wrap;fontColor=#FFFFFF;fontSize=10;" vertex="1" parent="BuQ4V9epDreo4t1ZrMX0-32">
          <mxGeometry width="30" height="20" as="geometry" />
        </mxCell>
        <mxCell id="BuQ4V9epDreo4t1ZrMX0-35" value="" style="fillColor=#23445D;strokeColor=none;" vertex="1" parent="WIyWlLk6GJQsqaUBKTNV-1">
          <mxGeometry x="670" y="478" width="30" height="70" as="geometry" />
        </mxCell>
        <mxCell id="BuQ4V9epDreo4t1ZrMX0-36" value="" style="shape=mxgraph.arrows2.arrow;dy=0.4;dx=16;notch=0;direction=north;fillColor=#2F5B7C;strokeColor=none;" vertex="1" parent="BuQ4V9epDreo4t1ZrMX0-35">
          <mxGeometry x="3" y="10" width="24" height="60" as="geometry" />
        </mxCell>
        <mxCell id="BuQ4V9epDreo4t1ZrMX0-37" value="Label" style="text;html=1;align=center;verticalAlign=middle;whiteSpace=wrap;fontColor=#FFFFFF;fontSize=10;" vertex="1" parent="BuQ4V9epDreo4t1ZrMX0-35">
          <mxGeometry width="30" height="20" as="geometry" />
        </mxCell>
        <mxCell id="BuQ4V9epDreo4t1ZrMX0-38" value="" style="shape=table;html=1;whiteSpace=wrap;startSize=0;container=1;collapsible=0;childLayout=tableLayout;columnLines=0;rowLines=0;" vertex="1" parent="WIyWlLk6GJQsqaUBKTNV-1">
          <mxGeometry x="535" y="140" width="180" height="240" as="geometry" />
        </mxCell>
        <mxCell id="BuQ4V9epDreo4t1ZrMX0-39" value="" style="shape=partialRectangle;html=1;whiteSpace=wrap;collapsible=0;dropTarget=0;pointerEvents=0;fillColor=none;top=0;left=0;bottom=0;right=0;points=[[0,0.5],[1,0.5]];portConstraint=eastwest;" vertex="1" parent="BuQ4V9epDreo4t1ZrMX0-38">
          <mxGeometry width="180" height="80" as="geometry" />
        </mxCell>
        <mxCell id="BuQ4V9epDreo4t1ZrMX0-40" value="Value 1" style="shape=partialRectangle;html=1;whiteSpace=wrap;connectable=0;fillColor=none;top=0;left=0;bottom=0;right=0;overflow=hidden;" vertex="1" parent="BuQ4V9epDreo4t1ZrMX0-39">
          <mxGeometry width="60" height="80" as="geometry" />
        </mxCell>
        <mxCell id="BuQ4V9epDreo4t1ZrMX0-41" value="Value 2" style="shape=partialRectangle;html=1;whiteSpace=wrap;connectable=0;fillColor=none;top=0;left=0;bottom=0;right=0;overflow=hidden;" vertex="1" parent="BuQ4V9epDreo4t1ZrMX0-39">
          <mxGeometry x="60" width="60" height="80" as="geometry" />
        </mxCell>
        <mxCell id="BuQ4V9epDreo4t1ZrMX0-42" value="Value 3" style="shape=partialRectangle;html=1;whiteSpace=wrap;connectable=0;fillColor=none;top=0;left=0;bottom=0;right=0;overflow=hidden;" vertex="1" parent="BuQ4V9epDreo4t1ZrMX0-39">
          <mxGeometry x="120" width="60" height="80" as="geometry" />
        </mxCell>
        <mxCell id="BuQ4V9epDreo4t1ZrMX0-43" value="" style="shape=partialRectangle;html=1;whiteSpace=wrap;collapsible=0;dropTarget=0;pointerEvents=0;fillColor=none;top=0;left=0;bottom=0;right=0;points=[[0,0.5],[1,0.5]];portConstraint=eastwest;" vertex="1" parent="BuQ4V9epDreo4t1ZrMX0-38">
          <mxGeometry y="80" width="180" height="80" as="geometry" />
        </mxCell>
        <mxCell id="BuQ4V9epDreo4t1ZrMX0-44" value="Value 4" style="shape=partialRectangle;html=1;whiteSpace=wrap;connectable=0;fillColor=none;top=0;left=0;bottom=0;right=0;overflow=hidden;" vertex="1" parent="BuQ4V9epDreo4t1ZrMX0-43">
          <mxGeometry width="60" height="80" as="geometry" />
        </mxCell>
        <mxCell id="BuQ4V9epDreo4t1ZrMX0-45" value="Value 5" style="shape=partialRectangle;html=1;whiteSpace=wrap;connectable=0;fillColor=none;top=0;left=0;bottom=0;right=0;overflow=hidden;" vertex="1" parent="BuQ4V9epDreo4t1ZrMX0-43">
          <mxGeometry x="60" width="60" height="80" as="geometry" />
        </mxCell>
        <mxCell id="BuQ4V9epDreo4t1ZrMX0-46" value="Value 6" style="shape=partialRectangle;html=1;whiteSpace=wrap;connectable=0;fillColor=none;top=0;left=0;bottom=0;right=0;overflow=hidden;" vertex="1" parent="BuQ4V9epDreo4t1ZrMX0-43">
          <mxGeometry x="120" width="60" height="80" as="geometry" />
        </mxCell>
        <mxCell id="BuQ4V9epDreo4t1ZrMX0-47" value="" style="shape=partialRectangle;html=1;whiteSpace=wrap;collapsible=0;dropTarget=0;pointerEvents=0;fillColor=none;top=0;left=0;bottom=0;right=0;points=[[0,0.5],[1,0.5]];portConstraint=eastwest;" vertex="1" parent="BuQ4V9epDreo4t1ZrMX0-38">
          <mxGeometry y="160" width="180" height="80" as="geometry" />
        </mxCell>
        <mxCell id="BuQ4V9epDreo4t1ZrMX0-48" value="Value 7" style="shape=partialRectangle;html=1;whiteSpace=wrap;connectable=0;fillColor=none;top=0;left=0;bottom=0;right=0;overflow=hidden;" vertex="1" parent="BuQ4V9epDreo4t1ZrMX0-47">
          <mxGeometry width="60" height="80" as="geometry" />
        </mxCell>
        <mxCell id="BuQ4V9epDreo4t1ZrMX0-49" value="Value 8" style="shape=partialRectangle;html=1;whiteSpace=wrap;connectable=0;fillColor=none;top=0;left=0;bottom=0;right=0;overflow=hidden;" vertex="1" parent="BuQ4V9epDreo4t1ZrMX0-47">
          <mxGeometry x="60" width="60" height="80" as="geometry" />
        </mxCell>
        <mxCell id="BuQ4V9epDreo4t1ZrMX0-50" value="Value 9" style="shape=partialRectangle;html=1;whiteSpace=wrap;connectable=0;fillColor=none;top=0;left=0;bottom=0;right=0;overflow=hidden;" vertex="1" parent="BuQ4V9epDreo4t1ZrMX0-47">
          <mxGeometry x="120" width="60" height="80" as="geometry" />
        </mxCell>
      </root>
    </mxGraphModel>
  </diagram>
</mxfile>
